<svg version="1.1" id="Shopping_Cart" xmlns="http://www.w3.org/2000/svg" xmlns:xlink="http://www.w3.org/1999/xlink" x="0px" y="0px" viewBox="0 0 512 512" style="enable-background:new 0 0 512 512;" xml:space="preserve">
<style type="text/css">
	.st0{fill:#F9AD95;}
	.st1{fill:#FFFFFF;}
</style>
<g>
<g>
<path d="M270.15,92.3H139.24c-4.42,0-8-3.58-8-8s3.58-8,8-8h130.91c4.42,0,8,3.58,8,8S274.57,92.3,270.15,92.3z" id="id_101"></path>
</g>
<path class="st0" d="M476.19,274.49l2.89-149c0.38-19.81-15.57-36.08-35.39-36.08H142.04l52.38,190.71L476.19,274.49z" id="id_102" style="fill: rgb(66, 5, 117);"></path>
<g>
<g>
<path d="M454.53,288.13H214.36c-15.31,0-28.9-10.29-33.06-25.03L123.38,57.49c-2.73-9.7-11.68-16.47-21.75-16.47h-69.4
				c-4.42,0-8-3.58-8-8s3.58-8,8-8h69.4c17.21,0,32.49,11.57,37.15,28.13l57.93,205.61c2.22,7.87,9.48,13.37,17.65,13.37h240.17
				c9.51,0,17.25-7.74,17.25-17.25V164.6c0-4.42,3.58-8,8-8s8,3.58,8,8v90.28C487.78,273.21,472.86,288.13,454.53,288.13z" id="id_103"></path>
</g>
<g>
<path d="M456.83,392.46c-0.28,0-0.56-0.01-0.84-0.04l-251.91-26.18c-15.75-1.64-27.62-14.81-27.62-30.64
				c0-15.39,11.51-28.52,26.77-30.54l257.89-34.1c4.39-0.58,8.4,2.5,8.98,6.88s-2.5,8.4-6.88,8.98l-257.9,34.1
				c-7.33,0.97-12.87,7.28-12.87,14.68c0,7.61,5.71,13.94,13.28,14.73l251.91,26.18c4.39,0.46,7.59,4.39,7.13,8.78
				C464.35,389.39,460.88,392.46,456.83,392.46z" id="id_104"></path>
</g>
</g>
<g>
<g>
<path d="M233.05,486.98c-24.87,0-45.1-20.23-45.1-45.1s20.23-45.1,45.1-45.1s45.1,20.23,45.1,45.1S257.92,486.98,233.05,486.98z
				 M233.05,412.78c-16.05,0-29.1,13.06-29.1,29.1s13.06,29.1,29.1,29.1s29.1-13.06,29.1-29.1S249.1,412.78,233.05,412.78z" id="id_105"></path>
</g>
<g>
<path d="M401.07,486.98c-24.87,0-45.11-20.23-45.11-45.1s20.23-45.1,45.11-45.1s45.1,20.23,45.1,45.1
				S425.94,486.98,401.07,486.98z M401.07,412.78c-16.05,0-29.11,13.06-29.11,29.1s13.06,29.1,29.11,29.1
				c16.05,0,29.1-13.06,29.1-29.1S417.12,412.78,401.07,412.78z" id="id_106"></path>
</g>
</g>
<g>
<g>
<path class="st1" d="M243.09,243.07c-3.51,0-6.72-2.32-7.71-5.87l-35.12-126.79c-1.18-4.26,1.32-8.67,5.57-9.85
				c4.26-1.18,8.67,1.32,9.85,5.57l35.12,126.79c1.18,4.26-1.32,8.67-5.57,9.85C244.52,242.98,243.8,243.07,243.09,243.07z" id="id_107"></path>
</g>
<g>
<path class="st1" d="M292.49,216.29c-3.6,0-6.87-2.45-7.77-6.11l-22.35-91.67c-1.05-4.29,1.58-8.62,5.88-9.67
				c4.29-1.04,8.62,1.58,9.67,5.88l22.35,91.67c1.05,4.29-1.58,8.62-5.88,9.67C293.76,216.21,293.12,216.29,292.49,216.29z" id="id_108"></path>
</g>
<g>
<path class="st1" d="M338.92,197.24c-3.64,0-6.93-2.5-7.79-6.19l-15.6-67.26c-1-4.3,1.68-8.6,5.99-9.6c4.3-1,8.6,1.68,9.6,5.98
				l15.6,67.26c1,4.3-1.68,8.6-5.99,9.6C340.13,197.17,339.52,197.24,338.92,197.24z" id="id_109"></path>
</g>
</g>
</g>
</svg>